<mxfile host="app.diagrams.net" modified="2024-02-20T00:03:01.057Z" agent="Mozilla/5.0 (Windows NT 10.0; Win64; x64) AppleWebKit/537.36 (KHTML, like Gecko) Chrome/121.0.0.0 Safari/537.36" version="23.1.5" etag="bJiC7r56p4dPqVOdboSp" type="github">
  <diagram name="Page-1" id="yaXHUHbhzWSQ8yS1xNiA">
    <mxGraphModel>
      <root>
        <mxCell id="0" />
        <mxCell id="1" parent="0" />
      </root>
    </mxGraphModel>
  </diagram>
</mxfile>
